<svg width="43" height="29" viewBox="0 0 43 29" fill="none" xmlns="http://www.w3.org/2000/svg">
<path d="M3.878 28.064C4.06867 28.064 4.254 28.0327 4.434 27.97C4.614 27.906 4.776 27.8147 4.92 27.696C5.06533 27.576 5.18067 27.4313 5.266 27.262C5.35133 27.0913 5.394 26.9 5.394 26.688V26.262H3.868V26.672H4.86V26.744C4.86 26.9093 4.814 27.0553 4.722 27.182C4.63133 27.3073 4.51267 27.4053 4.366 27.476C4.21933 27.5467 4.064 27.582 3.9 27.582C3.69867 27.582 3.51667 27.5287 3.354 27.422C3.19133 27.314 3.062 27.166 2.966 26.978C2.87133 26.79 2.824 26.574 2.824 26.33C2.824 26.1047 2.86667 25.9 2.952 25.716C3.03867 25.5307 3.16333 25.3833 3.326 25.274C3.49 25.1633 3.68867 25.108 3.922 25.108C4.10333 25.108 4.28067 25.1427 4.454 25.212C4.62733 25.28 4.774 25.374 4.894 25.494L5.146 25.09C4.98867 24.9473 4.802 24.8367 4.586 24.758C4.37133 24.6793 4.14867 24.64 3.918 24.64C3.662 24.64 3.43133 24.686 3.226 24.778C3.022 24.8687 2.848 24.994 2.704 25.154C2.56 25.314 2.45 25.4967 2.374 25.702C2.298 25.9073 2.26 26.124 2.26 26.352C2.26 26.592 2.30133 26.816 2.384 27.024C2.46667 27.232 2.58133 27.414 2.728 27.57C2.87467 27.7247 3.046 27.846 3.242 27.934C3.438 28.0207 3.65 28.064 3.878 28.064ZM5.91872 28H6.44272V24.7H5.91872V28ZM7.97487 28.064C8.20021 28.064 8.39888 28.026 8.57088 27.95C8.74421 27.8727 8.87954 27.7613 8.97688 27.616C9.07554 27.4693 9.12488 27.2927 9.12488 27.086C9.12488 26.89 9.08088 26.7307 8.99288 26.608C8.90621 26.484 8.78687 26.38 8.63487 26.296C8.48287 26.2107 8.30954 26.1293 8.11487 26.052C8.01621 26.0133 7.92487 25.9753 7.84087 25.938C7.75821 25.8993 7.69221 25.852 7.64287 25.796C7.59354 25.7387 7.56887 25.6633 7.56887 25.57C7.56887 25.45 7.61354 25.3447 7.70287 25.254C7.79221 25.162 7.91887 25.116 8.08288 25.116C8.22287 25.116 8.35287 25.1467 8.47287 25.208C8.59287 25.268 8.69021 25.3373 8.76487 25.416L8.99288 25.018C8.93021 24.9527 8.85021 24.8913 8.75288 24.834C8.65688 24.7767 8.55021 24.73 8.43288 24.694C8.31688 24.658 8.19688 24.64 8.07288 24.64C7.87154 24.64 7.69487 24.684 7.54287 24.772C7.39087 24.86 7.27221 24.9753 7.18687 25.118C7.10287 25.2607 7.06087 25.4147 7.06087 25.58C7.06087 25.732 7.09554 25.8613 7.16487 25.968C7.23421 26.0733 7.32221 26.162 7.42887 26.234C7.53687 26.3047 7.64754 26.364 7.76087 26.412C7.91954 26.4773 8.05888 26.5393 8.17887 26.598C8.29888 26.6553 8.39221 26.7227 8.45887 26.8C8.52554 26.876 8.55887 26.9753 8.55887 27.098C8.55887 27.2567 8.50421 27.3767 8.39487 27.458C8.28554 27.538 8.15021 27.578 7.98887 27.578C7.83687 27.578 7.70154 27.5493 7.58287 27.492C7.46421 27.4333 7.36287 27.3667 7.27887 27.292C7.19487 27.2173 7.12821 27.1547 7.07887 27.104L6.80287 27.528C6.83754 27.568 6.88821 27.618 6.95487 27.678C7.02154 27.7367 7.10354 27.796 7.20087 27.856C7.29954 27.9147 7.41287 27.964 7.54087 28.004C7.67021 28.044 7.81487 28.064 7.97487 28.064ZM9.65934 28H11.4333V27.54H10.1833V26.576H11.3853V26.116H10.1833V25.16H11.4333V24.7H9.65934V28ZM12.0609 28H13.8449V27.54H12.5849V24.7H12.0609V28ZM14.2554 28H16.0294V27.54H14.7794V26.576H15.9814V26.116H14.7794V25.16H16.0294V24.7H14.2554V28ZM19.2328 28H21.0068V27.54H19.7568V26.576H20.9588V26.116H19.7568V25.16H21.0068V24.7H19.2328V28ZM22.4803 28.064C22.7057 28.064 22.9043 28.026 23.0763 27.95C23.2497 27.8727 23.385 27.7613 23.4823 27.616C23.581 27.4693 23.6303 27.2927 23.6303 27.086C23.6303 26.89 23.5863 26.7307 23.4983 26.608C23.4117 26.484 23.2923 26.38 23.1403 26.296C22.9883 26.2107 22.815 26.1293 22.6203 26.052C22.5217 26.0133 22.4303 25.9753 22.3463 25.938C22.2637 25.8993 22.1977 25.852 22.1483 25.796C22.099 25.7387 22.0743 25.6633 22.0743 25.57C22.0743 25.45 22.119 25.3447 22.2083 25.254C22.2977 25.162 22.4243 25.116 22.5883 25.116C22.7283 25.116 22.8583 25.1467 22.9783 25.208C23.0983 25.268 23.1957 25.3373 23.2703 25.416L23.4983 25.018C23.4357 24.9527 23.3557 24.8913 23.2583 24.834C23.1623 24.7767 23.0557 24.73 22.9383 24.694C22.8223 24.658 22.7023 24.64 22.5783 24.64C22.377 24.64 22.2003 24.684 22.0483 24.772C21.8963 24.86 21.7777 24.9753 21.6923 25.118C21.6083 25.2607 21.5663 25.4147 21.5663 25.58C21.5663 25.732 21.601 25.8613 21.6703 25.968C21.7397 26.0733 21.8277 26.162 21.9343 26.234C22.0423 26.3047 22.153 26.364 22.2663 26.412C22.425 26.4773 22.5643 26.5393 22.6843 26.598C22.8043 26.6553 22.8977 26.7227 22.9643 26.8C23.031 26.876 23.0643 26.9753 23.0643 27.098C23.0643 27.2567 23.0097 27.3767 22.9003 27.458C22.791 27.538 22.6557 27.578 22.4943 27.578C22.3423 27.578 22.207 27.5493 22.0883 27.492C21.9697 27.4333 21.8683 27.3667 21.7843 27.292C21.7003 27.2173 21.6337 27.1547 21.5843 27.104L21.3083 27.528C21.343 27.568 21.3937 27.618 21.4603 27.678C21.527 27.7367 21.609 27.796 21.7063 27.856C21.805 27.9147 21.9183 27.964 22.0463 28.004C22.1757 28.044 22.3203 28.064 22.4803 28.064ZM25.6348 28.064C25.8415 28.064 26.0355 28.034 26.2168 27.974C26.3995 27.914 26.5555 27.8367 26.6848 27.742L26.4548 27.298C26.3548 27.378 26.2361 27.44 26.0988 27.484C25.9615 27.528 25.8168 27.55 25.6648 27.55C25.4248 27.55 25.2108 27.4973 25.0228 27.392C24.8348 27.2853 24.6868 27.142 24.5788 26.962C24.4708 26.7807 24.4168 26.5773 24.4168 26.352C24.4168 26.1267 24.4708 25.924 24.5788 25.744C24.6868 25.5627 24.8348 25.4193 25.0228 25.314C25.2108 25.2073 25.4248 25.154 25.6648 25.154C25.8168 25.154 25.9615 25.176 26.0988 25.22C26.2361 25.264 26.3548 25.326 26.4548 25.406L26.6848 24.962C26.5515 24.8647 26.3935 24.7867 26.2108 24.728C26.0281 24.6693 25.8348 24.64 25.6308 24.64C25.3828 24.64 25.1508 24.684 24.9348 24.772C24.7201 24.8587 24.5308 24.98 24.3668 25.136C24.2041 25.292 24.0768 25.474 23.9848 25.682C23.8928 25.8887 23.8468 26.112 23.8468 26.352C23.8468 26.592 23.8928 26.816 23.9848 27.024C24.0768 27.2307 24.2041 27.412 24.3668 27.568C24.5308 27.724 24.7208 27.846 24.9368 27.934C25.1528 28.0207 25.3855 28.064 25.6348 28.064ZM28.244 28.064C29.0547 28.064 29.46 27.6513 29.46 26.826V24.7H28.936V26.684C28.936 26.984 28.88 27.2033 28.768 27.342C28.6573 27.4807 28.4827 27.55 28.244 27.55C28.0053 27.55 27.83 27.4807 27.718 27.342C27.6073 27.2033 27.552 26.984 27.552 26.684V24.7H27.03V26.826C27.03 27.6513 27.4347 28.064 28.244 28.064ZM30.1711 28H31.0191C31.2537 28 31.4717 27.9587 31.6731 27.876C31.8757 27.792 32.0524 27.6753 32.2031 27.526C32.3551 27.3753 32.4731 27.2 32.5571 27C32.6411 26.8 32.6831 26.584 32.6831 26.352C32.6831 26.12 32.6404 25.904 32.5551 25.704C32.4711 25.5027 32.3531 25.3273 32.2011 25.178C32.0504 25.0273 31.8744 24.91 31.6731 24.826C31.4717 24.742 31.2537 24.7 31.0191 24.7H30.1711V28ZM30.6951 27.53V25.17H30.9631C31.1831 25.17 31.3804 25.222 31.5551 25.326C31.7297 25.4287 31.8677 25.5693 31.9691 25.748C32.0704 25.9253 32.1211 26.126 32.1211 26.35C32.1211 26.574 32.0704 26.7753 31.9691 26.954C31.8677 27.1313 31.7297 27.272 31.5551 27.376C31.3804 27.4787 31.1831 27.53 30.9631 27.53H30.6951ZM33.2133 28H34.9873V27.54H33.7373V26.576H34.9393V26.116H33.7373V25.16H34.9873V24.7H33.2133V28ZM35.6148 28H36.1388V26.704H36.3728L37.3608 28H38.0248L36.9388 26.646C37.1855 26.5953 37.3788 26.484 37.5188 26.312C37.6601 26.14 37.7308 25.9273 37.7308 25.674C37.7308 25.3673 37.6328 25.1287 37.4368 24.958C37.2408 24.786 36.9761 24.7 36.6428 24.7H35.6148V28ZM36.1388 26.264V25.12H36.4888C36.7088 25.12 36.8795 25.17 37.0008 25.27C37.1235 25.37 37.1848 25.5093 37.1848 25.688C37.1848 25.868 37.1235 26.0093 37.0008 26.112C36.8781 26.2133 36.7075 26.264 36.4888 26.264H36.1388ZM39.7883 28.064C40.019 28.064 40.235 28.02 40.4363 27.932C40.6376 27.844 40.8143 27.722 40.9663 27.566C41.1183 27.4087 41.237 27.2267 41.3223 27.02C41.409 26.812 41.4523 26.5893 41.4523 26.352C41.4523 26.1133 41.409 25.8907 41.3223 25.684C41.237 25.4773 41.1183 25.296 40.9663 25.14C40.8143 24.9827 40.6376 24.86 40.4363 24.772C40.235 24.684 40.019 24.64 39.7883 24.64C39.5576 24.64 39.3416 24.684 39.1403 24.772C38.939 24.86 38.7623 24.9827 38.6103 25.14C38.4583 25.296 38.339 25.4773 38.2523 25.684C38.167 25.8907 38.1243 26.1133 38.1243 26.352C38.1243 26.5893 38.167 26.812 38.2523 27.02C38.339 27.2267 38.4583 27.4087 38.6103 27.566C38.7623 27.722 38.939 27.844 39.1403 27.932C39.3416 28.02 39.5576 28.064 39.7883 28.064ZM39.7883 27.56C39.579 27.56 39.3916 27.5073 39.2263 27.402C39.061 27.2967 38.9303 27.1533 38.8343 26.972C38.7383 26.7893 38.6903 26.5827 38.6903 26.352C38.6903 26.1213 38.7383 25.9153 38.8343 25.734C38.9303 25.5513 39.061 25.4073 39.2263 25.302C39.3916 25.1967 39.579 25.144 39.7883 25.144C39.999 25.144 40.187 25.1967 40.3523 25.302C40.5176 25.4073 40.6483 25.5513 40.7443 25.734C40.8403 25.9153 40.8883 26.1213 40.8883 26.352C40.8883 26.5827 40.8403 26.7893 40.7443 26.972C40.6483 27.1533 40.5176 27.2967 40.3523 27.402C40.187 27.5073 39.999 27.56 39.7883 27.56Z" fill="black"/>
<path d="M5.72739 13.0626C5.73814 14.1746 5.93269 15.2648 6.31104 16.3331C6.68947 17.4095 7.23489 18.3803 7.94729 19.2455C8.66776 20.1185 9.54649 20.8101 10.5835 21.3201C11.6285 21.83 12.8229 22.0784 14.1668 22.0654L16.3027 22.0448L16.2141 12.8772L14.2822 12.8959L14.3467 19.5676L13.7707 19.5732C12.9068 19.5815 12.121 19.4051 11.4135 19.0439C10.706 18.6908 10.0933 18.2047 9.57531 17.5856C9.06538 16.9745 8.67066 16.2823 8.39117 15.509C8.11168 14.7357 7.96799 13.941 7.9601 13.125C7.95035 12.1171 8.14125 11.1752 8.5328 10.2994C8.93235 9.42347 9.49693 8.65398 10.2266 7.99089C10.9562 7.3278 11.8112 6.80751 12.7916 6.43001C13.78 6.06043 14.8583 5.87 16.0262 5.8587C17.1062 5.84826 18.1277 5.99839 19.0907 6.30909C20.0538 6.62779 20.9104 7.09553 21.6604 7.7123C22.4104 8.32908 23.0018 9.0874 23.4345 9.98725C23.8672 10.8871 24.0892 11.917 24.1004 13.077C24.112 14.2769 23.8871 15.4231 23.4256 16.5156C22.9722 17.6161 22.3531 18.5381 21.5683 19.2817L23.4519 20.4756C24.3312 19.571 25.0246 18.4723 25.5321 17.1793C26.0397 15.8943 26.2864 14.5199 26.2723 13.056C26.2573 11.504 25.9638 10.1148 25.3919 8.88827C24.8201 7.66974 24.0501 6.63714 23.0819 5.79047C22.1136 4.94379 21.0114 4.30242 19.7751 3.86636C18.5388 3.43029 17.2487 3.21876 15.9048 3.23175C14.4649 3.24568 13.1233 3.50667 11.8802 4.01471C10.645 4.52268 9.56374 5.22117 8.63629 6.11018C7.70892 7.00719 6.98694 8.04622 6.47033 9.22727C5.96181 10.4162 5.71416 11.6947 5.72739 13.0626Z" fill="black"/>
<path d="M19.3808 12.8122L19.472 22.2388L21.4409 22.2197L21.3713 15.0261L27.52 14.9666L27.587 21.8963L29.5449 21.8773L29.4779 14.9477L35.5826 14.8886L35.6522 22.0823L37.6211 22.0632L37.53 12.6367L19.3808 12.8122Z" fill="black"/>
<path d="M17 1C23 1 28.4492 6.08467 28.5 11.5" stroke="black" stroke-width="2"/>
</svg>
